<svg xmlns="http://www.w3.org/2000/svg" viewBox="5.9 5.9 52.3 52.3">
  <g transform="matrix(.92857 0 0 .92857-676.94-144.37)">
    <rect y="161.93" x="735.47" height="56" width="56" rx="2.635"/>
    <path d="m16.428 15.744c-.159-.052-1.164-.505-.536-2.414h-.009c1.637-1.686 2.888-4.399 2.888-7.07 0-4.107-2.731-6.26-5.905-6.26-3.176 0-5.892 2.152-5.892 6.26 0 2.682 1.244 5.406 2.891 7.088.642 1.684-.506 2.309-.746 2.396-2.238.724-8.325 4.332-8.229 9.586h24.05c.107-5.02-4.708-8.279-8.513-9.586" fill-opacity=".85" transform="matrix(1.36051 0 0 1.36051 745.89 173.77)" fill="white" />
  </g>
</svg>
